<svg id="Capa_1" enable-background="new 0 0 512.001 512.001" height="512" viewBox="0 0 512.001 512.001" width="512" xmlns="http://www.w3.org/2000/svg"><g><path d="m161.033 31.808c-26.641-31.751-73.905-35.893-105.662-9.245l-22.981 19.284c-31.68 26.583-35.827 73.983-9.244 105.662 5.333 6.357 14.8 7.164 21.132 1.849l45.963-38.567c3.64 4.318 9.233 11.07 10.291 12.181-43.653 42.082-69.532 99.74-69.532 163.028 0 60.482 23.841 118.961 69.493 162.99l-32.194 38.368c-5.325 6.346-4.498 15.807 1.849 21.132 6.321 5.304 15.787 4.523 21.132-1.849l32.12-38.28c38.332 28.33 84.337 43.639 132.6 43.639s94.268-15.309 132.6-43.638l32.12 38.279c5.309 6.327 14.768 7.19 21.132 1.849 6.347-5.325 7.174-14.787 1.849-21.133l-32.194-38.367c43.894-42.342 69.493-100.069 69.493-162.99 0-60.377-23.774-118.926-69.531-163.028 1.216-1.278-1.143 1.386 10.291-12.181l45.963 38.567c6.321 5.304 15.787 4.523 21.132-1.849 26.583-31.68 22.436-79.08-9.244-105.662l-22.981-19.284c-31.68-26.582-79.079-22.435-105.662 9.244-2.558 3.048-3.8 6.986-3.453 10.949s2.254 7.626 5.302 10.184l45.963 38.567c-11.357 13.582-9.191 10.884-10.144 12.155-34.349-25.392-74.859-40.318-117.636-43.152v-30.51h30c8.284 0 15-6.716 15-15s-6.716-15-15-15h-90c-8.284 0-15 6.716-15 15s6.716 15 15 15h30v30.51c-42.777 2.834-83.287 17.76-117.634 43.152-.882-1.176.463.531-10.145-12.155l45.962-38.567c6.348-5.325 7.175-14.786 1.85-21.132zm276.313 13.737 22.981 19.284c14.98 12.57 19.7 32.899 13.219 50.254-9.167-7.692-78.783-66.107-87.987-73.83 15.968-9.397 36.807-8.277 51.787 4.292zm13.654 240.455c0 108.075-87.477 196-195 196s-195-87.925-195-196 87.477-196 195-196 195 87.925 195 196zm-412.546-170.917c-6.481-17.355-1.762-37.684 13.219-50.254l22.981-19.284c15.418-12.937 36.331-13.45 51.803-4.306z"/><path d="m256 180c-8.284 0-15 6.716-15 15v84.859l-55.694 56.622c-5.809 5.906-5.73 15.403.176 21.212 5.897 5.801 15.394 5.739 21.213-.175l60-61c2.758-2.805 4.305-6.582 4.305-10.518v-91c0-8.284-6.716-15-15-15z"/><circle cx="256" cy="135" r="15"/><circle cx="256" cy="437" r="15"/><circle cx="149.934" cy="178.934" r="15"/><circle cx="362.066" cy="393.066" r="15"/><circle cx="106" cy="286" r="15"/><circle cx="406" cy="286" r="15"/><circle cx="149.934" cy="393.066" r="15"/><circle cx="362.066" cy="178.934" r="15"/></g></svg>