<svg height="512pt" viewBox="0 -30 612 612" width="512pt" xmlns="http://www.w3.org/2000/svg"><path d="m64.71875 424.742188c9.605469 1.734374 19.339844 2.675781 29.097656 2.816406 15.957032 0 26.710938-3.5 33.109375-10.667969 10.496094-11.519531 6.058594-27.730469 2.5625-40.703125l-1.109375-4.09375c-2.816406-10.496094 6.058594-27.648438 16.125-41.386719 7.875 1.234375 15.835938 1.832031 23.808594 1.789063 5.546875 0 11.265625-.253906 17.324219-.765625 18.515625 69.714843 29.269531 102.144531 105.128906 116.480469 9.699219 1.925781 19.554687 2.957031 29.441406 3.070312 27.816407 0 39.765625-10.410156 44.714844-20.480469 5.066406-12.535156 4.15625-26.699219-2.476563-38.484375 14.957032 6.375 31.253907 8.957032 47.445313 7.507813 20.183594-1.347657 38.464844-12.382813 49.066406-29.609375 21.933594-31.914063 25.601563-79.617188 10.328125-128.339844 27.5625-16.640625 53.757813-48.640625 38.226563-109.3125-2.214844-8.851562-5.09375-17.523438-8.617188-25.941406 8.628907-6.996094 13.4375-17.660156 12.96875-28.757813.34375-24.746093-16.722656-53.417969-42.578125-56.832031-7.5625-1.285156-15.335937.070312-22.015625 3.839844-22.621093-12.558594-47.507812-20.503906-73.21875-23.382813-34.21875-4.777343-88.148437 2.304688-150.355469 25.089844-38.113281 14.148437-74.753906 31.980469-109.398437 53.246094-.53125.3125-1.042969.65625-1.535156 1.027343-1.964844 1.023438-3.925781 2.300782-5.804688 3.496094-44.597656 29.433594-76.726562 74.328125-90.195312 126.039063-.9375 3.070312-1.707031 6.144531-2.5625 9.214843-6.65625 28.339844-11.109375 57.15625-13.308594 86.1875-2.144531 21.382813-.410156 42.976563 5.117187 63.742188 6.71875 28.519531 29.835938 50.257812 58.710938 55.210938zm279.550781-80.722657c-1.9375 7.167969-2.402343 14.660157-1.363281 22.015625-8.378906-19.296875-13.621094-39.808594-15.53125-60.757812 2.730469-2.390625 6.058594-5.375 9.128906-8.277344 7.734375 14.375 10.46875 30.917969 7.765625 47.019531zm109.226563-302.335937c.171875-.171875.257812-.34375.425781-.515625l.429687-.425781c3.523438-2.957032 8.269532-4.007813 12.714844-2.816407 16.125 2.132813 27.988282 22.699219 27.730469 39.679688.917969 7.589843-3.390625 14.84375-10.496094 17.664062-1.257812.355469-2.539062.613281-3.839843.769531-7.59375 1.332032-15.402344-.519531-21.589844-5.121093-5.414063-5.09375-8.808594-11.972657-9.554688-19.371094-.085937-.253906-.085937-.597656-.171875-.851563-.851562-5.289062-1.960937-21.589843 4.351563-29.011718zm-55.039063 100.179687c9.523438 11.253907 10.925781 27.285157 3.5 40.019531-5.964843 13.367188-18.703125 22.445313-33.28125 23.722657-.769531-.011719-1.539062-.070313-2.304687-.167969-10.386719-.734375-19.484375-7.226562-23.550782-16.8125-5.078124-12.753906-2.996093-27.246094 5.460938-38.058594l.171875-.253906c6.191406-10.191406 16.613281-17.078125 28.414063-18.773438 8.410156-.097656 16.386718 3.714844 21.589843 10.324219zm11.859375 86.785157 22.617188 1.621093c4.363281.566407 7.585937 4.359375 7.429687 8.761719s-3.632812 7.960938-8.027343 8.21875h-.597657l-22.613281-1.621094c-3.195312.003906-6.125-1.777344-7.589844-4.613281-1.46875-2.839844-1.226562-6.257813.621094-8.863281 1.851562-2.601563 5-3.957032 8.160156-3.503906zm-110.503906-167.9375c6.398438-17.238282 23.296875-35.15625 43.007812-35.925782 13.515626-.234375 26.445313 5.511719 35.328126 15.703125 6.792968 7.480469 9.699218 17.710938 7.851562 27.648438-3.449219 14.90625-12.21875 28.046875-24.664062 36.949219-7.070313 5.136718-15.3125 8.421874-23.976563 9.554687-1.472656.191406-2.953125.308594-4.4375.34375-2.617187.027344-5.214844-.40625-7.679687-1.28125-15.445313 44.714844-16.300782 78.59375-2.390626 100.691406 10.785157 15.554688 27.714844 25.746094 46.507813 27.992188.296875-7.988281 1.617187-15.902344 3.925781-23.554688 1.585938-4.304687 6.292969-6.585937 10.652344-5.160156 4.363281 1.421875 6.820312 6.039063 5.558594 10.453125-2.566406 8.566406-3.519532 17.535156-2.816406 26.453125.070312.128906.101562.277344.085937.425781.070313.25.101563.507813.085937.769532.769532 4.351562 3.753907 14.589843 29.355469 15.613281 8.644531 1.125 17.382813-1.203125 24.320313-6.484375 4.851562-5.09375 7.625-11.820313 7.765625-18.859375.183593-1.214844.300781-2.4375.339843-3.667969v-.085938c.085938-1.621093.171876-3.070312.171876-4.605468.234374-6.226563-.371094-12.453125-1.792969-18.519532-.851563-3.582031-1.878907-7.082031-2.988281-10.410156l-1.875-5.71875c-3.671876-10.238281-8.191407-20.222656-11.605469-27.902344l-.9375-1.878906-.683594-1.195312-.257813-.59375c-.066406-.101563-.097656-.222656-.085937-.34375-.285156-.503906-.488281-1.050782-.597656-1.621094-.339844-1.285156-.339844-2.636719 0-3.925781 0-.085938.085937-.167969.085937-.253907.074219-.234374.15625-.460937.257813-.683593.085937-.171875.085937-.339844.171875-.425781.105468-.355469.246094-.699219.425781-1.023438 4.585937-6.921875 10.164063-13.132812 16.554687-18.433594 8.519532-5.914062 20.003907-5.136718 27.648438 1.878906 11.816406 11.019532 16.207031 27.875 11.261719 43.261719-4.855469 9.691407-12.148438 17.953125-21.160157 23.980469.152344.414062.265626.84375.339844 1.277344 1.058594 4.195312 1.71875 8.480468 1.960938 12.800781.257812 2.5625.34375 5.292969.34375 7.9375v1.875c0 1.707031-.085938 3.5-.171875 5.207031-.085938 1.878906-.253907 3.328125-.425781 4.863282.011718.121093-.019532.242187-.085938.34375-.558594 7.863281-3.019531 15.476562-7.167969 22.183593v.085938c-1.6875 2.574219-3.695312 4.925781-5.972656 6.996093-9.230469 7.824219-21.117187 11.796876-33.195313 11.09375-1.109374 0-2.21875-.085937-3.328124-.085937-29.441407-1.277344-40.191407-13.820313-43.945313-24.402344-8.855469-1.132812-17.539063-3.335937-25.855469-6.570312-15.414062-5.652344-28.542968-16.203125-37.378906-30.039063-17.234375-27.5625-16.382812-68.09375 2.648438-120.40625-11.761719-10.660156-16.144532-27.246094-11.179688-42.324218zm-174.25 32.171874c26.304688-15.90625 53.773438-29.796874 82.175781-41.558593-25.6875 49.40625-61.953125 139.519531-38.316406 220.757812 4.523437 15.445313 8.277344 29.441407 11.691406 42.15625l.171875.765625c-10.15625.757813-20.355468.527344-30.464844-.683594 9.640626-56.234374-5.035156-94.804687-19.199218-132.179687l-4.609375-12.289063c-9.8125-26.453124-5.460938-58.367187-1.449219-76.96875zm0 0"/></svg>