<svg height="512" viewBox="0 0 64 64" width="512" xmlns="http://www.w3.org/2000/svg"><g id="flat"><path d="m51 21v-13c0-2.531-1.469-5-4-5h-4c-2.531 0-4 2.469-4 5v.051z" fill="#143441"/><path d="m25 8.051v-.051c0-2.531-1.469-5-4-5h-4c-2.531 0-4 2.469-4 5v13z" fill="#143441"/><path d="m61 61h-58v-24l11-11h36l11 11z" fill="#394d5c"/><path d="m27 38h10a13 13 0 0 1 13 13v10a0 0 0 0 1 0 0h-36a0 0 0 0 1 0 0v-10a13 13 0 0 1 13-13z" fill="#f4f4e6"/><rect fill="#f4f4e6" height="26" rx="13" width="38" x="13" y="8"/><g fill="#143441"><path d="m23 51h7v2h-7z"/><path d="m25 56h6v2h-6z"/><path d="m33 56h5.641v2h-5.641z"/><path d="m34 51h7v2h-7z"/></g><path d="m37.27 31.7a7.8 7.8 0 0 1 -5.27 2.3 7.821 7.821 0 0 1 -5.31-2.27l-1.18-1.62a4.689 4.689 0 0 1 -.51-2.11v-5l4-4h6l4 4v5a4.455 4.455 0 0 1 -.54 2.09z" fill="#394d5c"/><path d="m39 23v-4h-14v4h6v2.53l-5.49 4.58a6.111 6.111 0 0 0 1.18 1.62l5.31-4.43 5.27 4.4a6.272 6.272 0 0 0 1.19-1.61l-5.46-4.56v-2.53z" fill="#143441"/><rect fill="#394d5c" height="8.485" rx="4.243" transform="matrix(.707 -.707 .707 .707 -6.198 22.036)" width="12.728" x="17.136" y="14.257"/><path d="m24 16h2v2h-2z" fill="#f4f4e6"/><path d="m36 14a4.242 4.242 0 0 1 6 0l3 3a4.242 4.242 0 0 1 0 6 4.242 4.242 0 0 1 -6 0l-4-4c-1-1 0-4 1-5z" fill="#394d5c"/><path d="m38 16h2v2h-2z" fill="#f4f4e6"/><path d="m11 51h12a5 5 0 0 1 5 5 5 5 0 0 1 -5 5h-12a0 0 0 0 1 0 0v-10a0 0 0 0 1 0 0z" fill="#394d5c"/><path d="m36 51h12a5 5 0 0 1 5 5 5 5 0 0 1 -5 5h-12a0 0 0 0 1 0 0v-10a0 0 0 0 1 0 0z" fill="#394d5c" transform="matrix(-1 0 0 -1 89 112)"/></g></svg>